<svg width="3037" height="441" viewBox="0 0 3037 441" fill="none" xmlns="http://www.w3.org/2000/svg">
<rect width="3037" height="441" fill="#777777"/>
<rect width="3965" height="1762" transform="translate(-482 -796)" fill="black"/>
<g clip-path="url(#clip0_0_1)">
<path d="M1742.24 413.4C1735.07 414.547 1727.19 415.837 1718.59 417.27C1709.99 418.703 1702.25 419.993 1695.37 421.14C1696.52 411.68 1697.66 402.363 1698.81 393.19C1699.67 385.163 1700.39 377.137 1700.96 369.11C1701.82 361.083 1702.54 354.203 1703.11 348.47H1665.7L1648.5 410.39C1642.19 411.25 1634.74 412.253 1626.14 413.4C1617.54 414.26 1609.51 415.12 1602.06 415.98C1592.89 417.127 1583.86 418.273 1574.97 419.42C1586.44 381.293 1597.76 343.74 1608.94 306.76C1613.53 291.28 1618.26 275.083 1623.13 258.17C1628.29 241.257 1633.31 224.487 1638.18 207.86C1643.34 190.947 1648.21 174.75 1652.8 159.27C1657.39 143.79 1661.4 129.6 1664.84 116.7C1684.33 115.267 1704.11 113.547 1724.18 111.54C1744.53 109.533 1764.31 106.81 1783.52 103.37C1782.66 112.543 1781.66 124.01 1780.51 137.77C1779.65 151.243 1778.79 166.007 1777.93 182.06C1777.07 198.113 1776.21 214.883 1775.35 232.37C1774.49 249.857 1773.63 267.057 1772.77 283.97C1771.34 323.53 1769.76 365.527 1768.04 409.96C1759.44 411.393 1750.84 412.54 1742.24 413.4ZM1676.02 305.47C1677.17 305.47 1679.17 305.47 1682.04 305.47C1685.19 305.183 1688.35 305.04 1691.5 305.04C1694.94 304.753 1698.09 304.61 1700.96 304.61C1703.83 304.323 1705.83 304.037 1706.98 303.75C1706.98 302.03 1707.12 299.163 1707.41 295.15C1707.98 290.85 1708.41 286.12 1708.7 280.96C1709.27 275.513 1709.85 269.637 1710.42 263.33C1710.99 257.023 1711.57 250.86 1712.14 244.84C1713.29 230.22 1714.72 214.453 1716.44 197.54L1719.02 160.13L1712.57 160.56L1702.68 197.54L1676.02 305.47ZM1772.18 424.15C1780.78 382.87 1788.95 342.88 1796.69 304.18C1799.55 287.553 1802.56 270.353 1805.72 252.58C1809.16 234.807 1812.31 217.32 1815.18 200.12C1818.04 182.633 1820.62 166.007 1822.92 150.24C1825.21 134.187 1826.93 119.71 1828.08 106.81C1831.8 107.097 1834.96 107.24 1837.54 107.24C1840.12 107.24 1843.13 107.24 1846.57 107.24C1850.58 107.24 1855.45 107.24 1861.19 107.24C1866.92 106.953 1872.65 106.667 1878.39 106.38C1884.12 106.093 1890.28 105.807 1896.88 105.52C1900.89 125.587 1904.47 144.937 1907.63 163.57C1910.78 179.91 1913.93 196.68 1917.09 213.88C1920.53 231.08 1923.54 245.7 1926.12 257.74C1927.26 252.007 1928.55 245.413 1929.99 237.96C1931.42 230.22 1933 222.193 1934.72 213.88C1936.44 205.567 1938.01 197.253 1939.45 188.94C1941.17 180.34 1942.89 171.883 1944.61 163.57C1948.62 144.937 1952.78 125.73 1957.08 105.95L2009.54 99.5C1999.79 143.36 1991.19 184.927 1983.74 224.2C1980.3 241.113 1976.86 258.313 1973.42 275.8C1970.26 293 1967.25 309.627 1964.39 325.68C1961.52 341.447 1959.08 356.21 1957.08 369.97C1955.07 383.443 1953.49 394.767 1952.35 403.94C1951.49 403.94 1948.05 404.657 1942.03 406.09C1936.29 407.237 1929.56 408.67 1921.82 410.39C1914.36 412.11 1906.77 413.83 1899.03 415.55C1891.57 417.27 1885.98 418.847 1882.26 420.28C1880.54 397.347 1878.67 375.56 1876.67 354.92C1875.81 346.033 1874.8 337.003 1873.66 327.83C1872.8 318.37 1871.79 309.34 1870.65 300.74C1869.5 292.14 1868.35 284.113 1867.21 276.66C1866.06 269.207 1864.91 262.757 1863.77 257.31C1862.91 262.757 1861.76 269.063 1860.33 276.23C1858.89 283.397 1857.46 290.993 1856.03 299.02C1854.59 307.047 1853.16 315.503 1851.73 324.39C1850.29 332.99 1848.72 341.303 1847 349.33C1843.27 368.537 1839.26 388.603 1834.96 409.53L1772.18 424.15ZM1966.6 424.15C1975.2 382.87 1983.37 342.88 1991.11 304.18C1993.98 287.553 1996.99 270.353 2000.14 252.58C2003.58 234.807 2006.73 217.32 2009.6 200.12C2012.47 182.633 2015.05 166.007 2017.34 150.24C2019.63 134.187 2021.35 119.71 2022.5 106.81C2026.23 107.097 2029.38 107.24 2031.96 107.24C2034.54 107.24 2037.55 107.24 2040.99 107.24C2045 107.24 2049.88 107.24 2055.61 107.24C2061.34 106.953 2067.08 106.667 2072.81 106.38C2078.54 106.093 2084.71 105.807 2091.3 105.52C2095.31 125.587 2098.9 144.937 2102.05 163.57C2105.2 179.91 2108.36 196.68 2111.51 213.88C2114.95 231.08 2117.96 245.7 2120.54 257.74C2121.69 252.007 2122.98 245.413 2124.41 237.96C2125.84 230.22 2127.42 222.193 2129.14 213.88C2130.86 205.567 2132.44 197.253 2133.87 188.94C2135.59 180.34 2137.31 171.883 2139.03 163.57C2143.04 144.937 2147.2 125.73 2151.5 105.95L2203.96 99.5C2194.21 143.36 2185.61 184.927 2178.16 224.2C2174.72 241.113 2171.28 258.313 2167.84 275.8C2164.69 293 2161.68 309.627 2158.81 325.68C2155.94 341.447 2153.51 356.21 2151.5 369.97C2149.49 383.443 2147.92 394.767 2146.77 403.94C2145.91 403.94 2142.47 404.657 2136.45 406.09C2130.72 407.237 2123.98 408.67 2116.24 410.39C2108.79 412.11 2101.19 413.83 2093.45 415.55C2086 417.27 2080.41 418.847 2076.68 420.28C2074.96 397.347 2073.1 375.56 2071.09 354.92C2070.23 346.033 2069.23 337.003 2068.08 327.83C2067.22 318.37 2066.22 309.34 2065.07 300.74C2063.92 292.14 2062.78 284.113 2061.63 276.66C2060.48 269.207 2059.34 262.757 2058.19 257.31C2057.33 262.757 2056.18 269.063 2054.75 276.23C2053.32 283.397 2051.88 290.993 2050.45 299.02C2049.02 307.047 2047.58 315.503 2046.15 324.39C2044.72 332.99 2043.14 341.303 2041.42 349.33C2037.69 368.537 2033.68 388.603 2029.38 409.53L1966.6 424.15ZM2399.67 189.37C2399.67 212.877 2397.09 235.093 2391.93 256.02C2387.06 276.66 2380.47 295.723 2372.15 313.21C2363.84 330.41 2354.09 345.89 2342.91 359.65C2332.02 373.123 2320.55 384.733 2308.51 394.48C2296.47 403.94 2284.29 411.25 2271.96 416.41C2259.64 421.283 2247.88 423.72 2236.7 423.72C2227.24 423.72 2218.64 422 2210.9 418.56C2203.16 414.833 2196.43 409.53 2190.69 402.65C2184.96 395.483 2180.37 386.453 2176.93 375.56C2173.78 364.38 2172.2 351.05 2172.2 335.57C2172.2 319.517 2174.21 302.603 2178.22 284.83C2182.24 267.057 2187.68 249.427 2194.56 231.94C2201.44 214.453 2209.9 197.827 2219.93 182.06C2229.97 166.293 2241 152.39 2253.04 140.35C2265.08 128.023 2277.98 118.277 2291.74 111.11C2305.5 103.943 2319.84 100.36 2334.74 100.36C2347.64 100.36 2358.25 103.083 2366.56 108.53C2375.16 113.69 2381.76 120.57 2386.34 129.17C2391.22 137.483 2394.66 146.943 2396.66 157.55C2398.67 168.157 2399.67 178.763 2399.67 189.37ZM2236.27 324.39C2236.27 327.543 2236.85 330.84 2237.99 334.28C2239.14 337.72 2240.72 340.73 2242.72 343.31C2244.73 345.89 2247.17 348.183 2250.03 350.19C2253.19 351.91 2256.48 352.77 2259.92 352.77C2272.82 352.77 2284.29 348.327 2294.32 339.44C2304.36 330.553 2312.67 319.66 2319.26 306.76C2325.86 293.86 2330.87 280.1 2334.31 265.48C2338.04 250.86 2339.9 237.53 2339.9 225.49C2339.9 222.05 2339.62 218.323 2339.04 214.31C2338.76 210.297 2337.9 206.57 2336.46 203.13C2335.32 199.69 2333.31 196.823 2330.44 194.53C2327.86 191.95 2324.28 190.66 2319.69 190.66C2310.52 190.66 2302.06 192.953 2294.32 197.54C2286.58 202.127 2279.56 208.29 2273.25 216.03C2267.23 223.483 2261.93 232.083 2257.34 241.83C2252.76 251.29 2248.74 261.037 2245.3 271.07C2242.15 280.817 2239.86 290.42 2238.42 299.88C2236.99 309.34 2236.27 317.51 2236.27 324.39ZM2556.26 404.8C2553.68 404.8 2548.24 404.943 2539.92 405.23C2531.61 405.517 2521.72 405.947 2510.25 406.52C2499.07 407.093 2486.89 407.81 2473.7 408.67C2460.52 409.53 2447.62 410.533 2435 411.68C2422.39 412.54 2410.64 413.543 2399.74 414.69C2389.14 415.837 2380.68 416.983 2374.37 418.13L2374.8 355.35L2496.92 188.94C2492.05 188.94 2485.17 189.513 2476.28 190.66C2467.4 191.52 2458.37 192.523 2449.19 193.67C2440.31 194.817 2432.57 195.963 2425.97 197.11L2415.65 197.97L2423.82 130.46L2599.69 117.99L2588.51 177.33L2471.12 344.17C2476.86 344.17 2484.45 343.883 2493.91 343.31C2503.66 342.737 2513.69 342.163 2524.01 341.59C2534.33 341.017 2545.51 340.3 2557.55 339.44L2556.26 404.8ZM2741.45 404.8C2738.87 404.8 2733.42 404.943 2725.11 405.23C2716.8 405.517 2706.91 405.947 2695.44 406.52C2684.26 407.093 2672.08 407.81 2658.89 408.67C2645.7 409.53 2632.8 410.533 2620.19 411.68C2607.58 412.54 2595.82 413.543 2584.93 414.69C2574.32 415.837 2565.87 416.983 2559.56 418.13L2559.99 355.35L2682.11 188.94C2677.24 188.94 2670.36 189.513 2661.47 190.66C2652.58 191.52 2643.55 192.523 2634.38 193.67C2625.49 194.817 2617.75 195.963 2611.16 197.11L2600.84 197.97L2609.01 130.46L2784.88 117.99L2773.7 177.33L2656.31 344.17C2662.04 344.17 2669.64 343.883 2679.1 343.31C2688.85 342.737 2698.88 342.163 2709.2 341.59C2719.52 341.017 2730.7 340.3 2742.74 339.44L2741.45 404.8ZM2982.1 189.37C2982.1 212.877 2979.52 235.093 2974.36 256.02C2969.49 276.66 2962.9 295.723 2954.58 313.21C2946.27 330.41 2936.52 345.89 2925.34 359.65C2914.45 373.123 2902.98 384.733 2890.94 394.48C2878.9 403.94 2866.72 411.25 2854.39 416.41C2842.07 421.283 2830.31 423.72 2819.13 423.72C2809.67 423.72 2801.07 422 2793.33 418.56C2785.59 414.833 2778.86 409.53 2773.12 402.65C2767.39 395.483 2762.8 386.453 2759.36 375.56C2756.21 364.38 2754.63 351.05 2754.63 335.57C2754.63 319.517 2756.64 302.603 2760.65 284.83C2764.67 267.057 2770.11 249.427 2776.99 231.94C2783.87 214.453 2792.33 197.827 2802.36 182.06C2812.4 166.293 2823.43 152.39 2835.47 140.35C2847.51 128.023 2860.41 118.277 2874.17 111.11C2887.93 103.943 2902.27 100.36 2917.17 100.36C2930.07 100.36 2940.68 103.083 2948.99 108.53C2957.59 113.69 2964.19 120.57 2968.77 129.17C2973.65 137.483 2977.09 146.943 2979.09 157.55C2981.1 168.157 2982.1 178.763 2982.1 189.37ZM2818.7 324.39C2818.7 327.543 2819.28 330.84 2820.42 334.28C2821.57 337.72 2823.15 340.73 2825.15 343.31C2827.16 345.89 2829.6 348.183 2832.46 350.19C2835.62 351.91 2838.91 352.77 2842.35 352.77C2855.25 352.77 2866.72 348.327 2876.75 339.44C2886.79 330.553 2895.1 319.66 2901.69 306.76C2908.29 293.86 2913.3 280.1 2916.74 265.48C2920.47 250.86 2922.33 237.53 2922.33 225.49C2922.33 222.05 2922.05 218.323 2921.47 214.31C2921.19 210.297 2920.33 206.57 2918.89 203.13C2917.75 199.69 2915.74 196.823 2912.87 194.53C2910.29 191.95 2906.71 190.66 2902.12 190.66C2892.95 190.66 2884.49 192.953 2876.75 197.54C2869.01 202.127 2861.99 208.29 2855.68 216.03C2849.66 223.483 2844.36 232.083 2839.77 241.83C2835.19 251.29 2831.17 261.037 2827.73 271.07C2824.58 280.817 2822.29 290.42 2820.85 299.88C2819.42 309.34 2818.7 317.51 2818.7 324.39Z" fill="white"/>
<path fill-rule="evenodd" clip-rule="evenodd" d="M1361.15 416.022V20H1460.46C1602.47 20 1602.47 99.403 1602.47 139.104C1602.47 258.209 1513.59 258.209 1460.95 258.209V416.022H1361.15ZM1460.95 175.828V99.403C1520.54 99.403 1520.54 126.367 1520.54 139.104C1520.54 175.828 1487.11 175.828 1460.95 175.828Z" fill="#D9D9D9"/>
<path d="M1460.95 20H1460.46M1460.46 20H1361.15V416.022H1460.95V258.209C1513.59 258.209 1602.47 258.209 1602.47 139.104C1602.47 99.403 1602.47 20 1460.46 20ZM1460.95 99.403V175.828C1487.11 175.828 1520.54 175.828 1520.54 139.104C1520.54 126.367 1520.54 99.403 1460.95 99.403Z" stroke="black"/>
<path d="M436.68 405.24C427.793 405.24 418.333 405.527 408.3 406.1C398.553 406.673 388.663 407.533 378.63 408.68C368.597 409.827 358.707 411.403 348.96 413.41C339.5 415.13 330.9 417.28 323.16 419.86C324.88 406.96 326.887 392.627 329.18 376.86C331.473 361.093 334.053 344.753 336.92 327.84C340.073 310.927 343.083 293.87 345.95 276.67C349.103 259.47 352.257 242.987 355.41 227.22C362.577 189.667 370.173 151.397 378.2 112.41L453.45 102.52C445.71 135.773 438.257 168.167 431.09 199.7C427.937 213.173 424.783 227.22 421.63 241.84C418.477 256.173 415.467 270.22 412.6 283.98C409.733 297.74 407.153 311.07 404.86 323.97C402.567 336.87 400.703 348.337 399.27 358.37C406.437 357.797 414.033 357.51 422.06 357.51C430.373 357.223 437.683 357.08 443.99 357.08C444.277 362.527 444.707 367.973 445.28 373.42C445.853 378.58 446.427 383.31 447 387.61C447.86 391.91 448.433 395.78 448.72 399.22C449.293 402.373 449.723 404.523 450.01 405.67C447.717 405.67 445.423 405.67 443.13 405.67C441.123 405.383 438.973 405.24 436.68 405.24ZM451.196 419.43L507.526 113.7L643.406 102.09C641.399 108.397 639.679 114.847 638.246 121.44C636.813 126.887 635.379 132.62 633.946 138.64C632.799 144.373 631.796 149.533 630.936 154.12C628.069 154.407 623.913 154.693 618.466 154.98C613.306 154.98 607.716 155.123 601.696 155.41C595.676 155.41 589.513 155.41 583.206 155.41C577.186 155.41 571.883 155.41 567.296 155.41L552.246 232.38C561.133 231.807 569.446 231.377 577.186 231.09C583.493 230.803 589.943 230.66 596.536 230.66C603.129 230.66 608.003 230.517 611.156 230.23C610.009 238.257 608.863 246.14 607.716 253.88C606.856 261.62 605.709 269.503 604.276 277.53C601.409 277.817 596.679 278.103 590.086 278.39C583.779 278.39 577.329 278.533 570.736 278.82C563.283 279.107 555.113 279.393 546.226 279.68L531.606 358.8L594.386 348.91L590.086 397.93L451.196 419.43ZM784.799 312.79C784.799 328.843 781.645 343.463 775.339 356.65C769.319 369.55 761.005 380.73 750.399 390.19C740.079 399.65 727.752 406.96 713.419 412.12C699.372 417.28 684.179 419.86 667.839 419.86C656.372 419.86 644.905 416.85 633.439 410.83C621.972 404.523 610.935 394.633 600.329 381.16L632.149 318.81C634.155 322.537 637.165 326.407 641.179 330.42C645.192 334.147 649.635 337.443 654.509 340.31C659.669 343.177 664.685 345.613 669.559 347.62C674.719 349.34 679.305 350.2 683.319 350.2C686.759 350.2 690.342 349.627 694.069 348.48C697.795 347.333 701.235 345.613 704.389 343.32C707.542 341.027 709.979 338.447 711.699 335.58C713.705 332.427 714.709 328.843 714.709 324.83C714.709 317.95 712.415 311.643 707.829 305.91C703.529 299.89 698.082 294.3 691.489 289.14C684.895 283.693 677.729 278.247 669.989 272.8C662.249 267.353 655.082 261.62 648.489 255.6C642.182 249.58 636.735 242.843 632.149 235.39C627.562 227.937 625.269 219.623 625.269 210.45C625.269 195.543 629.712 181.64 638.599 168.74C647.485 155.84 658.522 144.803 671.709 135.63C685.182 126.17 699.802 118.717 715.569 113.27C731.335 107.823 746.242 105.1 760.289 105.1C768.029 105.1 775.339 106.103 782.219 108.11C789.099 109.83 794.975 112.84 799.849 117.14C805.009 121.153 809.022 126.313 811.889 132.62C815.042 138.927 816.619 146.81 816.619 156.27C816.619 160.283 816.189 164.297 815.329 168.31C814.755 172.323 814.182 176.623 813.609 181.21L751.259 199.27C751.832 196.977 752.262 194.683 752.549 192.39C753.122 190.097 753.409 187.803 753.409 185.51C753.409 176.91 751.832 170.747 748.679 167.02C745.812 163.007 741.942 161 737.069 161C734.775 161 731.909 161.86 728.469 163.58C725.315 165.3 722.019 167.593 718.579 170.46C715.425 173.04 712.702 176.193 710.409 179.92C708.115 183.647 706.969 187.66 706.969 191.96C706.969 198.84 708.832 204.573 712.559 209.16C716.572 213.747 721.445 218.047 727.179 222.06C732.912 226.073 739.075 230.23 745.669 234.53C752.549 238.543 758.855 243.847 764.589 250.44C770.322 257.033 775.052 265.347 778.779 275.38C782.792 285.127 784.799 297.597 784.799 312.79ZM969.564 312.79C969.564 328.843 966.411 343.463 960.104 356.65C954.084 369.55 945.771 380.73 935.164 390.19C924.844 399.65 912.518 406.96 898.184 412.12C884.138 417.28 868.944 419.86 852.604 419.86C841.138 419.86 829.671 416.85 818.204 410.83C806.738 404.523 795.701 394.633 785.094 381.16L816.914 318.81C818.921 322.537 821.931 326.407 825.944 330.42C829.958 334.147 834.401 337.443 839.274 340.31C844.434 343.177 849.451 345.613 854.324 347.62C859.484 349.34 864.071 350.2 868.084 350.2C871.524 350.2 875.108 349.627 878.834 348.48C882.561 347.333 886.001 345.613 889.154 343.32C892.308 341.027 894.744 338.447 896.464 335.58C898.471 332.427 899.474 328.843 899.474 324.83C899.474 317.95 897.181 311.643 892.594 305.91C888.294 299.89 882.848 294.3 876.254 289.14C869.661 283.693 862.494 278.247 854.754 272.8C847.014 267.353 839.848 261.62 833.254 255.6C826.948 249.58 821.501 242.843 816.914 235.39C812.328 227.937 810.034 219.623 810.034 210.45C810.034 195.543 814.478 181.64 823.364 168.74C832.251 155.84 843.288 144.803 856.474 135.63C869.948 126.17 884.568 118.717 900.334 113.27C916.101 107.823 931.008 105.1 945.054 105.1C952.794 105.1 960.104 106.103 966.984 108.11C973.864 109.83 979.741 112.84 984.614 117.14C989.774 121.153 993.788 126.313 996.654 132.62C999.808 138.927 1001.38 146.81 1001.38 156.27C1001.38 160.283 1000.95 164.297 1000.09 168.31C999.521 172.323 998.948 176.623 998.374 181.21L936.024 199.27C936.598 196.977 937.028 194.683 937.314 192.39C937.888 190.097 938.174 187.803 938.174 185.51C938.174 176.91 936.598 170.747 933.444 167.02C930.578 163.007 926.708 161 921.834 161C919.541 161 916.674 161.86 913.234 163.58C910.081 165.3 906.784 167.593 903.344 170.46C900.191 173.04 897.468 176.193 895.174 179.92C892.881 183.647 891.734 187.66 891.734 191.96C891.734 198.84 893.598 204.573 897.324 209.16C901.338 213.747 906.211 218.047 911.944 222.06C917.678 226.073 923.841 230.23 930.434 234.53C937.314 238.543 943.621 243.847 949.354 250.44C955.088 257.033 959.818 265.347 963.544 275.38C967.558 285.127 969.564 297.597 969.564 312.79ZM1036.94 410.4C1034.36 410.4 1029.2 410.83 1021.46 411.69C1014.01 412.263 1006.27 413.123 998.24 414.27C990.213 415.13 982.903 415.99 976.31 416.85C970.003 417.71 966.563 418.283 965.99 418.57C968.857 406.243 971.723 392.627 974.59 377.72C977.743 362.527 980.897 346.76 984.05 330.42C987.203 313.793 990.213 297.023 993.08 280.11C995.947 263.197 998.67 246.857 1001.25 231.09C1007.27 194.397 1013.29 156.7 1019.31 118L1086.39 107.25C1079.8 145.663 1073.35 183.36 1067.04 220.34C1064.46 236.107 1061.74 252.447 1058.87 269.36C1056.29 286.273 1053.57 303.043 1050.7 319.67C1048.12 336.297 1045.68 352.493 1043.39 368.26C1041.1 383.74 1038.95 397.787 1036.94 410.4ZM1291.56 186.37C1291.56 209.877 1288.98 232.093 1283.82 253.02C1278.95 273.66 1272.36 292.723 1264.04 310.21C1255.73 327.41 1245.98 342.89 1234.8 356.65C1223.91 370.123 1212.44 381.733 1200.4 391.48C1188.36 400.94 1176.18 408.25 1163.85 413.41C1151.53 418.283 1139.77 420.72 1128.59 420.72C1119.13 420.72 1110.53 419 1102.79 415.56C1095.05 411.833 1088.32 406.53 1082.58 399.65C1076.85 392.483 1072.26 383.453 1068.82 372.56C1065.67 361.38 1064.09 348.05 1064.09 332.57C1064.09 316.517 1066.1 299.603 1070.11 281.83C1074.13 264.057 1079.57 246.427 1086.45 228.94C1093.33 211.453 1101.79 194.827 1111.82 179.06C1121.86 163.293 1132.89 149.39 1144.93 137.35C1156.97 125.023 1169.87 115.277 1183.63 108.11C1197.39 100.943 1211.73 97.36 1226.63 97.36C1239.53 97.36 1250.14 100.083 1258.45 105.53C1267.05 110.69 1273.65 117.57 1278.23 126.17C1283.11 134.483 1286.55 143.943 1288.55 154.55C1290.56 165.157 1291.56 175.763 1291.56 186.37ZM1128.16 321.39C1128.16 324.543 1128.74 327.84 1129.88 331.28C1131.03 334.72 1132.61 337.73 1134.61 340.31C1136.62 342.89 1139.06 345.183 1141.92 347.19C1145.08 348.91 1148.37 349.77 1151.81 349.77C1164.71 349.77 1176.18 345.327 1186.21 336.44C1196.25 327.553 1204.56 316.66 1211.15 303.76C1217.75 290.86 1222.76 277.1 1226.2 262.48C1229.93 247.86 1231.79 234.53 1231.79 222.49C1231.79 219.05 1231.51 215.323 1230.93 211.31C1230.65 207.297 1229.79 203.57 1228.35 200.13C1227.21 196.69 1225.2 193.823 1222.33 191.53C1219.75 188.95 1216.17 187.66 1211.58 187.66C1202.41 187.66 1193.95 189.953 1186.21 194.54C1178.47 199.127 1171.45 205.29 1165.14 213.03C1159.12 220.483 1153.82 229.083 1149.23 238.83C1144.65 248.29 1140.63 258.037 1137.19 268.07C1134.04 277.817 1131.75 287.42 1130.31 296.88C1128.88 306.34 1128.16 314.51 1128.16 321.39Z" fill="white"/>
<path d="M11 416.022H109.815L208.631 175.828V416.022H307.446V57.7164V20H169.899L11 416.022Z" fill="#D9D9D9" stroke="black"/>
</g>
<rect x="-8.5" y="-480.5" width="3159" height="919" rx="4.5" stroke="#9747FF" stroke-dasharray="10 5"/>
<defs>
<clipPath id="clip0_0_1">
<rect x="-9" y="-481" width="3160" height="920" rx="5" fill="white"/>
</clipPath>
</defs>
</svg>
